<?xml version="1.0" encoding="utf-8"?><svg viewBox="0 0 75 75" xmlns="http://www.w3.org/2000/svg" xmlns:xlink="http://www.w3.org/1999/xlink"><style>:root>svg{display:none}:root>svg:target{display:block}</style><svg fill="none" viewBox="0 0 26 24" id="arrow" xmlns="http://www.w3.org/2000/svg"><path d="M1.188 22.773 24.468 2.81m0 0L8.25 1.566M24.467 2.81l-1.243 16.216"/></svg><svg fill="none" viewBox="0 0 22 22" id="arrow2" xmlns="http://www.w3.org/2000/svg"><path d="m11.113 14.056 7.378-7.368a.759.759 0 0 1 1.09.013.798.798 0 0 1-.014 1.113l-7.923 7.913a.759.759 0 0 1-1.084-.007L2.426 7.392a.8.8 0 0 1 0-1.111.759.759 0 0 1 1.089 0l7.598 7.775Z" fill="#034CC0"/></svg><svg fill="none" viewBox="0 0 28 28" id="arrow3" xmlns="http://www.w3.org/2000/svg"><path d="M4.667 14h18.666m0 0-7-7m7 7-7 7"/></svg><svg fill="none" viewBox="0 0 24 24" id="attachment" xmlns="http://www.w3.org/2000/svg"><path d="M19.468 4.743a4.729 4.729 0 0 0-6.802-.094l-9.598 9.666a.625.625 0 0 1-.887-.88l9.599-9.667a5.978 5.978 0 1 1 8.452 8.457l-8.747 8.676a3.795 3.795 0 1 1-5.294-5.437l7.628-7.291a.625.625 0 1 1 .863.903l-7.628 7.291a2.544 2.544 0 1 0 3.55 3.646l8.748-8.676a4.73 4.73 0 0 0 .116-6.594Z" fill="#034CC0"/></svg><svg viewBox="0 0 24 24" id="close" xmlns="http://www.w3.org/2000/svg"><path d="m12 12.708-5.246 5.246a.504.504 0 0 1-.344.15.467.467 0 0 1-.364-.15.491.491 0 0 1-.16-.354c0-.13.053-.247.16-.354L11.292 12 6.046 6.754a.505.505 0 0 1-.15-.344.467.467 0 0 1 .15-.364.491.491 0 0 1 .354-.16c.13 0 .247.054.354.16L12 11.292l5.246-5.246a.506.506 0 0 1 .345-.15.466.466 0 0 1 .363.15c.106.107.16.225.16.354 0 .13-.054.248-.16.354L12.708 12l5.246 5.246a.505.505 0 0 1 .15.345.465.465 0 0 1-.15.363.49.49 0 0 1-.354.16.491.491 0 0 1-.354-.16L12 12.708Z"/></svg><svg fill="none" viewBox="0 0 75 75" id="play" xmlns="http://www.w3.org/2000/svg"><circle cx="37.5" cy="37.5" r="37.5" fill="#FEFEFE"/><path d="M58 38.5 27.25 60.584V16.416L58 38.5Z" fill="#034CC0"/></svg></svg>