<svg width="75" height="74" viewBox="0 0 75 74" fill="none" xmlns="http://www.w3.org/2000/svg">
<path d="M44.2402 8.48828V19.5759C44.2402 21.0775 44.8384 22.5205 45.9052 23.5843C46.9748 24.6492 48.4228 25.2468 49.9321 25.2462H62.6508" stroke="#034CC0" stroke-width="4.5" stroke-linecap="round" stroke-linejoin="round"/>
<path d="M62.9375 26.418V52.836C62.8763 54.564 62.4737 56.2628 61.7529 57.8345C61.0322 59.4061 60.0075 60.8196 58.738 61.9935C57.4674 63.1728 55.9769 64.0902 54.3517 64.6933C52.7265 65.2965 50.9983 65.5735 49.266 65.5085H25.8635C24.1206 65.5882 22.3791 65.323 20.7389 64.7283C19.0987 64.1336 17.592 63.221 16.3052 62.0428C15.0233 60.8658 13.9882 59.4457 13.2598 57.8652C12.5315 56.2847 12.1245 54.5752 12.0625 52.836V21.1578C12.1237 19.4299 12.5263 17.7311 13.2471 16.1594C13.9678 14.5877 14.9925 13.1742 16.262 12.0003C17.5326 10.821 19.0231 9.90362 20.6483 9.3005C22.2735 8.69739 24.0017 8.42039 25.734 8.48534H43.3522C46.0417 8.47584 48.6378 9.47097 50.6319 11.2758L59.7586 19.6686C60.7325 20.5075 61.5188 21.542 62.0665 22.7049C62.6142 23.8678 62.911 25.1329 62.9375 26.418Z" stroke="#034CC0" stroke-width="4.5" stroke-linecap="round" stroke-linejoin="round"/>
<path d="M26.2764 42.1861L32.07 47.9827C32.2736 48.1888 32.516 48.3523 32.7833 48.464C33.0506 48.5756 33.3374 48.6331 33.627 48.6331C33.9167 48.6331 34.2035 48.5756 34.4708 48.464C34.738 48.3523 34.9805 48.1888 35.1841 47.9827L46.8607 36.3062" stroke="#034CC0" stroke-width="4.5" stroke-linecap="round" stroke-linejoin="round"/>
</svg>
